<svg xmlns="http://www.w3.org/2000/svg" width="780" height="440" viewBox="0 0 780 440"><defs><style>.d{fill:#fff;}.e{fill:#ffe16e;}.f{fill:#00a99c;}.g{fill:#ff95c1;}.h{fill:#162020;}.i{fill:#026661;}</style></defs><g id="a"><rect class="i" x=".0018" y=".0014" width="780" height="440"></rect></g><g id="b"><g><g><circle class="e" cx="551.585" cy="170.0634" r="52.8193"></circle><path class="h" d="M551.585,223.5078c-29.4697,0-53.4443-23.9751-53.4443-53.4443s23.9746-53.4443,53.4443-53.4443,53.4443,23.9751,53.4443,53.4443-23.9746,53.4443-53.4443,53.4443Zm0-105.6387c-28.7803,0-52.1943,23.4141-52.1943,52.1943s23.4141,52.1943,52.1943,52.1943,52.1943-23.4141,52.1943-52.1943-23.4141-52.1943-52.1943-52.1943Z"></path></g><g><path class="d" d="M551.585,202.3419c11.6685,0,21.1277-9.4592,21.1277-21.1277h-42.2554c0,11.6685,9.4592,21.1277,21.1277,21.1277Z"></path><path class="h" d="M551.585,202.9668c-11.9941,0-21.7529-9.7583-21.7529-21.7524,0-.3452,.2803-.625,.625-.625h42.2559c.3447,0,.625,.2798,.625,.625,0,11.9941-9.7588,21.7524-21.7529,21.7524Zm-20.4932-21.1274c.3311,11.0171,9.3965,19.8774,20.4932,19.8774s20.1621-8.8604,20.4932-19.8774h-40.9863Z"></path></g><g><path class="e" d="M562.1488,162.7274c0-4.3757,3.5472-7.9229,7.9229-7.9229s7.9229,3.5472,7.9229,7.9229"></path><path class="h" d="M578.6191,162.7275h-1.25c0-4.0239-3.2734-7.2979-7.2979-7.2979s-7.2979,3.2739-7.2979,7.2979h-1.25c0-4.7134,3.835-8.5479,8.5479-8.5479s8.5479,3.8345,8.5479,8.5479Z"></path></g><g><path class="e" d="M525.1753,162.7274c0-4.3757,3.5472-7.9229,7.9229-7.9229s7.9229,3.5472,7.9229,7.9229"></path><path class="h" d="M541.6465,162.7275h-1.25c0-4.0239-3.2734-7.2979-7.2979-7.2979s-7.2979,3.2739-7.2979,7.2979h-1.25c0-4.7134,3.835-8.5479,8.5479-8.5479s8.5479,3.8345,8.5479,8.5479Z"></path></g></g><g><path class="g" d="M223.3867,165.3069l.016-.016,.0479,.048,40.092-40.1876c10.1801-10.18,10.1801-26.6852,0-36.8653-.0107-.0107-.0228-.0196-.0335-.0304-10.1829-10.1478-26.6626-10.1389-36.8319,.0304l-3.2744,3.2744-.016-.016-.016,.016-3.2744-3.2744c-10.1693-10.1693-26.649-10.1782-36.8319-.0304-.0107,.0107-.0228,.0196-.0335,.0304-10.1801,10.18-10.1801,26.6852,0,36.8653l40.092,40.1876,.0479-.048,.016,.016Z"></path><path class="h" d="M223.4512,166.2231l-.0693-.0674-.0156,.0151-.4863-.3906-40.0918-40.1875c-10.4072-10.4072-10.4072-27.3413,0-37.7485,10.4443-10.4028,27.3613-10.3882,37.751,0l2.8252,2.8257,.0068-.0073,.0234,.0225,2.8398-2.8408c10.3896-10.3892,27.3066-10.4033,37.7158-.0317,10.4424,10.439,10.4424,27.373,.0352,37.7808l-40.5342,40.6299Zm-.1191-1.7598l.0078,.0063,.0625-.0625,.0469,.0474,39.6514-39.7446c9.9199-9.9209,9.9199-26.062,0-35.9819-9.9531-9.9165-26.0811-9.9009-35.9814,0l-3.7236,3.7231-.4668-.4487-3.2744-3.2744c-9.9023-9.9023-26.0283-9.9155-35.9482-.0298-9.9531,9.9497-9.9531,26.0908-.0332,36.0112l39.6592,39.7539Z"></path></g><g><path class="d" d="M232.8595,285.1488c-11.6265-71.8394,46.1573-160.9748,144.6462-162.2754,0-8.171,0-16.3892,0-24.6074,0-2.4319,.0915-4.8679-.0193-7.2947-.1887-4.1339,.6826-7.8202,4.8159-9.5894,4.402-1.8843,8.0896-.5807,11.4919,2.839,25.0052,25.1332,50.1215,50.1561,75.1798,75.2366,12.7565,12.7678,12.775,13.0292-.1018,25.9371-24.9041,24.9644-49.8769,49.8604-74.7712,74.8346-3.2412,3.2516-6.7052,5.4149-11.3296,3.424-4.6179-1.988-5.3926-5.9392-5.3143-10.5659,.1914-11.3116,.0624-22.6285,.0624-34.9156-58.3914,1.5761-107.2466,21.7927-144.6601,66.977Z"></path><path class="h" d="M232.4629,286.6074l-.2207-1.3594c-6.0352-37.291,6.3545-78.5952,33.1406-110.4893,27.8184-33.1221,67.3945-51.7515,111.498-52.501v-23.9917c0-.7593,.0088-1.5195,.0176-2.2793,.0195-1.6387,.0391-3.3335-.0361-4.9868-.1533-3.3555,.2188-8.063,5.1943-10.1929,4.3525-1.8643,8.3369-.8896,12.1807,2.9727,16.3799,16.4639,33.082,33.1548,49.2354,49.2964,8.6494,8.6445,17.2998,17.2886,25.9434,25.9395,12.9639,12.9751,12.9609,13.7271-.1016,26.8203-11.5645,11.5923-23.1436,23.1699-34.7227,34.7471-13.3564,13.3555-26.7139,26.71-40.0479,40.0879-3.0127,3.0205-6.7988,5.8027-12.0195,3.5566-5.1309-2.209-5.7676-6.665-5.6924-11.1504,.1357-8.0059,.1104-15.9561,.084-24.3721-.0098-3.2383-.0205-6.5283-.0215-9.8901-60.8936,1.7861-107.8535,23.6187-143.5537,66.7319l-.8779,1.0605ZM386.2275,81.1396c-1.1904,0-2.4102,.2739-3.6787,.8169-3.2891,1.4077-4.6572,4.1792-4.4385,8.9863,.0781,1.689,.0576,3.4023,.0381,5.0586-.0088,.7549-.0176,1.5103-.0176,2.2646v25.2241l-.6172,.0083c-43.9814,.5806-83.4639,19.0708-111.1729,52.064-26.2305,31.2319-38.5391,71.5449-33.0762,108.124,35.958-42.8525,83.1562-64.4907,144.2383-66.1396l.6416-.0171v.6421c0,3.584,.0107,7.0859,.0215,10.5283,.0264,8.4238,.0518,16.3799-.084,24.3984-.0791,4.6807,.7305,8.1699,4.9365,9.9805,4.5303,1.9492,7.7881-.4307,10.6406-3.291,13.334-13.3779,26.6914-26.7334,40.0488-40.0889,11.5791-11.5771,23.1572-23.1543,34.7217-34.7461q12.5576-12.5879,.1016-25.0537c-8.6426-8.6509-17.293-17.2949-25.9424-25.939-16.1533-16.1421-32.8564-32.834-49.2383-49.2988-2.3486-2.3608-4.6719-3.522-7.123-3.522Z"></path></g><g><g><path class="f" d="M384.3722,327.947l-3.5016,1.0907,2.2066,2.9285c1.0113,1.3404,1.5446,2.9272,1.5446,4.5891,0,3.7443-2.682,6.9105-6.3765,7.5283l-3.5028,.5857,1.6379,3.1517c.5687,1.0957,.8574,2.2753,.8574,3.5047,0,4.0242-3.1346,7.3556-7.1469,7.6122l-44.0591,.017c-.1311-.0019-5.4592-.104-9.3655-3.4266-.8473-.7212-1.6241-1.2306-2.4437-1.6026l-.9444-.4294v-40.729l4.5929-3.9278,15.5074-28.7458c.6828-1.1285,1.1853-2.3478,1.4929-3.6201,.3152-1.2956,.4237-2.6378,.3209-3.9889l-1.2256-16.1259c1.0667-.6078,2.2817-.9337,3.5205-.9337,6.6942,0,12.4302,10.6958,12.4302,19.4522,0,1.2149-.0933,2.4373-.2749,3.6296l-2.694,17.4568h33.6105c2.1461,0,4.2669,.8959,5.8179,2.4582,1.445,1.4551,2.2344,3.3156,2.2205,5.2391-.0164,2.3819-1.1235,4.5803-3.0375,6.0316l-3.1271,2.3699,3.4133,1.9349c2.397,1.358,3.8861,3.907,3.8861,6.6513,0,3.3654-2.1549,6.2983-5.3602,7.2982Z"></path><path class="h" d="M326.0322,359.5801c-.2402-.0039-5.7119-.124-9.7715-3.5752-.8008-.6826-1.5312-1.1621-2.2969-1.5098l-1.3105-.5967v-41.4189l4.7227-4.0391,15.4531-28.6436c.6641-1.0996,1.1416-2.2588,1.4346-3.4697,.2998-1.2344,.4033-2.5107,.3057-3.7959l-1.2559-16.5205,.3438-.1953c1.167-.6641,2.4912-1.0156,3.8301-1.0156,7.0312,0,13.0557,11.04,13.0557,20.0771,0,1.2402-.0947,2.4932-.2822,3.7236l-2.584,16.7383h32.8828c2.3125,0,4.5938,.9629,6.2607,2.6426,1.5645,1.5742,2.417,3.5928,2.4023,5.6846-.0176,2.5771-1.2158,4.9551-3.2852,6.5244l-2.3701,1.7969,2.5869,1.4658c2.5928,1.4697,4.2031,4.2266,4.2031,7.1953,0,3.6406-2.3301,6.8135-5.7988,7.8955h-.001l-2.6543,.8271,1.6729,2.2188c1.0928,1.4482,1.6709,3.166,1.6709,4.9658,0,4.0508-2.9014,7.4756-6.8984,8.1445l-2.6553,.4434,1.2422,2.3896c.6152,1.1865,.9277,2.4629,.9277,3.793,0,4.3418-3.3965,7.959-7.7324,8.2354l-44.0986,.0186Zm-12.1289-6.4863l.5781,.2627c.874,.3975,1.6973,.9365,2.5898,1.6963,3.7197,3.1641,8.918,3.2764,8.9697,3.2773l44.0498-.0176c3.6396-.2334,6.5225-3.3027,6.5225-6.9863,0-1.1279-.2646-2.21-.7871-3.2168l-2.0352-3.915,4.3516-.7266c3.3916-.5684,5.8545-3.4746,5.8545-6.9121,0-1.5264-.4902-2.9834-1.4189-4.2139l-2.7412-3.6367,4.3486-1.3545c2.9443-.918,4.9219-3.6113,4.9219-6.7021,0-2.5195-1.3682-4.8604-3.5693-6.1074l-4.2402-2.4033,3.8838-2.9434c1.7588-1.333,2.7754-3.3516,2.791-5.5371,.0127-1.7559-.7119-3.458-2.0391-4.7949-1.4346-1.4453-3.3926-2.2734-5.374-2.2734h-34.3398l2.8047-18.1777c.1787-1.167,.2686-2.3564,.2686-3.5342,0-8.2988-5.5586-18.8271-11.8057-18.8271-.9922,0-1.9756,.2305-2.8662,.6689l1.1943,15.7178c.1074,1.416-.0059,2.8242-.3369,4.1846-.3232,1.3359-.8496,2.6133-1.5645,3.7959l-15.5479,28.8223-4.4629,3.8164v40.0381Z"></path></g><g><rect class="f" x="284.5952" y="306.1426" width="30.0516" height="53.3408"></rect><path class="h" d="M315.2715,360.1084h-31.3008v-54.5908h31.3008v54.5908Zm-30.0508-1.25h28.8008v-52.0908h-28.8008v52.0908Z"></path></g></g><g><rect class="d" x="488.1513" y="299.2209" width="23.5572" height="61.8378"></rect><path class="h" d="M512.334,361.6836h-24.8076v-63.0879h24.8076v63.0879Zm-23.5576-1.25h22.3076v-60.5879h-22.3076v60.5879Z"></path></g><g><rect class="d" x="526.4319" y="280.0807" width="23.5572" height="80.978"></rect><path class="h" d="M550.6143,361.6836h-24.8076v-82.2275h24.8076v82.2275Zm-23.5576-1.25h22.3076v-79.7275h-22.3076v79.7275Z"></path></g><g><rect class="d" x="564.7124" y="259.4681" width="23.5572" height="101.5906"></rect><path class="h" d="M588.8945,361.6836h-24.8076v-102.8408h24.8076v102.8408Zm-23.5576-1.25h22.3076v-100.3408h-22.3076v100.3408Z"></path></g></g></svg>